<svg width="18" height="22" fill="none" xmlns="http://www.w3.org/2000/svg"><path d="M8.78 1C4.373 1 .785 4.597.785 9.017A7.91 7.91 0 00.98 10.79c.121.541.301 1.074.535 1.581.862 2.034 2.756 5.157 6.913 8.503a.567.567 0 00.711 0c4.153-3.346 6.051-6.47 6.913-8.503a7.824 7.824 0 00.59-1.849 8.265 8.265 0 00.142-1.505C16.776 4.597 13.188 1 8.78 1zm6.742 9.325c0 .008-.005.017-.005.025a9.673 9.673 0 01-.037.18v.009c-.105.47-.26.926-.464 1.367-.005.004-.005.012-.009.016-.782 1.858-2.496 4.692-6.227 7.782-3.73-3.09-5.444-5.924-6.226-7.782-.005-.004-.005-.012-.009-.016a7.115 7.115 0 01-.464-1.367v-.009c-.025-.096-.033-.159-.038-.18 0-.008-.004-.017-.004-.03a6.865 6.865 0 01-.125-1.307c0-3.795 3.082-6.885 6.866-6.885 3.785 0 6.867 3.09 6.867 6.885 0 .444-.042.884-.125 1.312z" fill="#2AB0CD"/><path d="M8.78 4.015c-2.797 0-5.076 2.285-5.076 5.09 0 2.805 2.279 5.09 5.076 5.09 2.798 0 5.077-2.285 5.077-5.09 0-2.805-2.279-5.09-5.077-5.09zm0 9.048a3.958 3.958 0 01-3.947-3.958A3.96 3.96 0 018.78 5.147a3.96 3.96 0 013.948 3.958 3.957 3.957 0 01-3.948 3.958z" fill="#2AB0CD"/><path d="M8.78 1C4.373 1 .785 4.597.785 9.017A7.91 7.91 0 00.98 10.79c.121.541.301 1.074.535 1.581.862 2.034 2.756 5.157 6.913 8.503a.567.567 0 00.711 0c4.153-3.346 6.051-6.47 6.913-8.503a7.824 7.824 0 00.59-1.849 8.265 8.265 0 00.142-1.505C16.776 4.597 13.188 1 8.78 1zm6.742 9.325c0 .008-.005.017-.005.025a9.673 9.673 0 01-.037.18v.009c-.105.47-.26.926-.464 1.367-.005.004-.005.012-.009.016-.782 1.858-2.496 4.692-6.227 7.782-3.73-3.09-5.444-5.924-6.226-7.782-.005-.004-.005-.012-.009-.016a7.115 7.115 0 01-.464-1.367v-.009c-.025-.096-.033-.159-.038-.18 0-.008-.004-.017-.004-.03a6.865 6.865 0 01-.125-1.307c0-3.795 3.082-6.885 6.866-6.885 3.785 0 6.867 3.09 6.867 6.885 0 .444-.042.884-.125 1.312z" stroke="#2AB0CD" stroke-width=".5"/><path d="M8.78 4.015c-2.797 0-5.076 2.285-5.076 5.09 0 2.805 2.279 5.09 5.076 5.09 2.798 0 5.077-2.285 5.077-5.09 0-2.805-2.279-5.09-5.077-5.09zm0 9.048a3.958 3.958 0 01-3.947-3.958A3.96 3.96 0 018.78 5.147a3.96 3.96 0 013.948 3.958 3.957 3.957 0 01-3.948 3.958z" stroke="#2AB0CD" stroke-width=".5"/></svg>