<svg width="28" height="28" fill="none" xmlns="http://www.w3.org/2000/svg"><path d="M27.686 17.236c.143-1.94.314-4.713.314-6.906 0-1.68-.097-3.856-.288-6.466a4.136 4.136 0 00-2.249-3.4 4.111 4.111 0 00-4.046.142C19.008 2.07 16.98 4.4 15.596 6.283a3.275 3.275 0 00-.83-.106h-1.532c-.286 0-.565.037-.83.106-1.876-2.559-3.832-4.467-5.82-5.677A4.111 4.111 0 002.536.464a4.137 4.137 0 00-2.25 3.4C.098 6.474 0 8.65 0 10.33c0 2.193.17 4.966.314 6.906a4.173 4.173 0 003.35 3.782 14.71 14.71 0 01-1.524 2.586L.298 26.003l6.79-1.535L9.313 28l.967-1.093a19.137 19.137 0 003.693-6.315 19.135 19.135 0 003.692 6.315L18.632 28l2.225-3.532 6.79 1.535-1.842-2.399a14.275 14.275 0 01-1.516-2.577c.476-.087.94-.258 1.367-.512a4.174 4.174 0 002.03-3.28zm-12.92-8.873c.603 0 1.093.49 1.093 1.093v2.952c0 .603-.49 1.093-1.093 1.093h-1.532c-.603 0-1.093-.49-1.093-1.093V9.456c0-.602.49-1.093 1.093-1.093h1.532zm-12.27 8.712c-.14-1.903-.308-4.618-.308-6.745 0-1.605.097-3.786.281-6.306.051-.694.45-1.298 1.07-1.616a1.914 1.914 0 011.907.065c2.093 1.274 3.903 3.356 5.147 5.04-.176.238-.32.502-.427.783a7.737 7.737 0 00-1.138-.422c-1.273-.37-2.64-.495-3.067-.495v2.187c.232 0 1.39.097 2.456.407 1.208.351 1.481.739 1.481.795 0 .063-.261.467-1.503.857-1.088.341-2.226.455-2.434.455v2.187c.46 0 1.838-.163 3.09-.556.389-.123.73-.256 1.03-.397.103.355.264.686.472.981-1.628 2.077-3.453 3.61-5.297 4.443a1.921 1.921 0 01-1.795-.103 1.96 1.96 0 01-.966-1.56zm7.075 7.23l-1.456-2.31-2.8.632a12.1 12.1 0 00.785-1.873c.02-.008.039-.015.058-.024 2.221-1.004 4.299-2.742 6.18-5.168.166.048.338.082.514.103a17.578 17.578 0 01-.477 2.659c-.41 1.591-1.222 3.819-2.804 5.98zm10.26-2.31l-1.456 2.31c-1.583-2.162-2.394-4.39-2.805-5.981a17.585 17.585 0 01-.476-2.653c.195-.02.385-.056.568-.109 1.407 1.809 3.5 3.955 6.175 5.166.209.669.495 1.319.794 1.9l-2.8-.634zm4.708-3.36a1.92 1.92 0 01-1.795.103c-2.247-1.016-4.054-2.859-5.297-4.443.209-.295.37-.626.472-.981.3.141.641.274 1.03.397 1.252.393 2.63.556 3.09.556V12.08c-.208 0-1.346-.114-2.434-.455-1.242-.39-1.503-.793-1.503-.857 0-.056.273-.444 1.48-.795 1.067-.31 2.225-.407 2.457-.407V7.379c-.428 0-1.794.125-3.067.495-.437.127-.813.27-1.138.422a3.285 3.285 0 00-.427-.783c1.257-1.702 3.062-3.771 5.147-5.04a1.913 1.913 0 011.908-.065 1.966 1.966 0 011.069 1.616c.184 2.52.282 4.701.282 6.306 0 2.127-.168 4.842-.308 6.745a1.96 1.96 0 01-.966 1.56z" fill="#fff"/></svg>