<svg width="22" height="23" fill="none" xmlns="http://www.w3.org/2000/svg"><path d="M13.5 19H21m0 0l-2.727-3M21 19l-2.727 3" stroke="#626262" stroke-width="1.2" stroke-linecap="round" stroke-linejoin="round"/><path d="M4.531 8.984H2.97v1.563H4.53V8.984zM7.656 8.984H6.094v1.563h1.562V8.984zM10.781 8.984H9.22v1.563h1.562V8.984zM13.906 8.984h-1.562v1.563h1.562V8.984zM17.031 8.984H15.47v1.563h1.562V8.984zM4.531 12.11H2.97v1.562H4.53v-1.563zM7.656 12.11H6.094v1.562h1.562v-1.563zM10.781 12.11H9.22v1.562h1.562v-1.563zM13.906 12.11h-1.562v1.562h1.562v-1.563zM4.531 15.234H2.97v1.563H4.53v-1.563zM7.656 15.234H6.094v1.563h1.562v-1.563zM10.781 15.234H9.22v1.563h1.562v-1.563zM17.031 12.11H15.47v1.562h1.562v-1.563z" fill="#626262"/><path fill-rule="evenodd" clip-rule="evenodd" d="M17.656 1.563h-.937V0h-1.563v1.563H4.844V0H3.28v1.563h-.937A2.346 2.346 0 000 3.905v13.75A2.346 2.346 0 002.344 20h8.437v-1.563H2.344a.782.782 0 01-.781-.78V7.343h16.875v6.328H20V3.906a2.346 2.346 0 00-2.344-2.344zM1.563 5.78h16.875V3.906c0-.43-.351-.781-.782-.781h-.937v1.563h-1.563V3.125H4.844v1.563H3.28V3.125h-.937c-.431 0-.781.35-.781.781v1.875z" fill="#626262"/></svg>