<svg width="54" height="54" fill="none" xmlns="http://www.w3.org/2000/svg"><path d="M47.746 26.379a.903.903 0 00-.62-.254h-17.5v-5.25h17.5a.904.904 0 00.62-.254l5.25-5.25a.882.882 0 000-1.242l-5.25-5.25a.904.904 0 00-.62-.254h-17.5V6.543a3.5 3.5 0 10-5.25 0v10.832h-17.5a.904.904 0 00-.622.254l-5.25 5.25a.882.882 0 000 1.242l5.25 5.25c.167.162.39.252.621.254h17.5v16.879C21.698 47.003 20 48.228 20 49.75c0 2.301 3.518 3.5 7 3.5 3.483 0 7-1.199 7-3.5 0-1.522-1.697-2.747-4.375-3.246v-8.129h17.5a.904.904 0 00.621-.254l5.25-5.25a.882.882 0 000-1.242l-5.25-5.25zm-18.12-16.004h17.14l4.375 4.375-4.375 4.375h-17.14v-8.75zM27 2.5A1.75 1.75 0 1127 6a1.75 1.75 0 010-3.5zm.875 5.128V48a.875.875 0 01-1.75 0V7.628a3.186 3.186 0 001.75 0zM7.234 27.875L2.859 23.5l4.375-4.375h17.141v8.75H7.234zM32.25 49.75c0 .621-1.995 1.75-5.25 1.75s-5.25-1.129-5.25-1.75c0-.411.936-1.102 2.651-1.479a2.612 2.612 0 005.198 0c1.715.377 2.651 1.068 2.651 1.48zm14.516-13.125h-17.14v-8.75h17.14l4.375 4.375-4.375 4.375z" fill="#7EBD3E"/></svg>