<svg width="26" height="28" fill="none" xmlns="http://www.w3.org/2000/svg"><path d="M8.6 11.682a.73.73 0 000 1.037l3.885 3.886c.14.142.33.218.515.218.184 0 .374-.071.515-.218L17.4 12.72a.73.73 0 000-1.037.73.73 0 00-1.037 0l-2.63 2.633V1.733A.73.73 0 0013 1a.73.73 0 00-.732.733v12.582l-2.631-2.633a.73.73 0 00-1.037 0z" fill="#626262"/><path d="M24.973 17.686l-2.55-9.228a.742.742 0 00-.401-.472l-.07-.033a.746.746 0 00-.305-.065h-4.595a.73.73 0 00-.732.733.73.73 0 00.732.733h4.102l2.153 7.805h-5.696a.73.73 0 00-.732.733v.662c0 .972-.787 1.759-1.758 1.759h-4.47a1.758 1.758 0 01-1.758-1.759v-.662a.73.73 0 00-.732-.733H2.687l2.165-7.822h4.101a.73.73 0 00.732-.732.73.73 0 00-.732-.733h-4.6a.746.746 0 00-.304.065l-.07.033a.728.728 0 00-.402.472l-2.55 9.227a.808.808 0 00-.027.196v3.848A5.292 5.292 0 006.284 27h13.432A5.292 5.292 0 0025 21.713v-3.832a.568.568 0 00-.027-.195zm-1.438 4.027a3.826 3.826 0 01-3.819 3.821H6.284a3.826 3.826 0 01-3.82-3.82v-3.09H7.44a3.226 3.226 0 003.223 3.149h4.47a3.226 3.226 0 003.222-3.148h5.192v3.088h-.01z" fill="#626262"/><path d="M8.6 11.682a.73.73 0 000 1.037l3.885 3.886c.14.142.33.218.515.218.184 0 .374-.071.515-.218L17.4 12.72a.73.73 0 000-1.037.73.73 0 00-1.037 0l-2.63 2.633V1.733A.73.73 0 0013 1a.73.73 0 00-.732.733v12.582l-2.631-2.633a.73.73 0 00-1.037 0z" stroke="#626262" stroke-width=".5"/><path d="M24.973 17.686l-2.55-9.228a.742.742 0 00-.401-.472l-.07-.033a.746.746 0 00-.305-.065h-4.595a.73.73 0 00-.732.733.73.73 0 00.732.733h4.102l2.153 7.805h-5.696a.73.73 0 00-.732.733v.662c0 .972-.787 1.759-1.758 1.759h-4.47a1.758 1.758 0 01-1.758-1.759v-.662a.73.73 0 00-.732-.733H2.687l2.165-7.822h4.101a.73.73 0 00.732-.732.73.73 0 00-.732-.733h-4.6a.746.746 0 00-.304.065l-.07.033a.728.728 0 00-.402.472l-2.55 9.227a.808.808 0 00-.027.196v3.848A5.292 5.292 0 006.284 27h13.432A5.292 5.292 0 0025 21.713v-3.832a.568.568 0 00-.027-.195zm-1.438 4.027a3.826 3.826 0 01-3.819 3.821H6.284a3.826 3.826 0 01-3.82-3.82v-3.09H7.44a3.226 3.226 0 003.223 3.149h4.47a3.226 3.226 0 003.222-3.148h5.192v3.088h-.01z" stroke="#626262" stroke-width=".5"/></svg>