<svg width="30" height="27" fill="none" xmlns="http://www.w3.org/2000/svg"><path fill-rule="evenodd" clip-rule="evenodd" d="M23 7.456c0 7.14-5.585 12.502-7.422 14.073a.879.879 0 01-1.156 0C12.585 19.958 7 14.595 7 7.456 7 3.338 10.582 0 15 0s8 3.338 8 7.456zM15 11a3 3 0 100-6 3 3 0 000 6z" fill="#fff"/><path fill-rule="evenodd" clip-rule="evenodd" d="M15.578 21.529C17.415 19.958 23 14.595 23 7.456 23 3.338 19.418 0 15 0S7 3.338 7 7.456c0 7.14 5.585 12.502 7.422 14.073a.879.879 0 001.156 0zM15 11a3 3 0 100-6 3 3 0 000 6z" fill="#fff"/><path d="M25 14h.61a.5.5 0 01.485.379l2.594 10.379A1 1 0 0127.72 26H2.281a1 1 0 01-.97-1.242l2.594-10.38A.5.5 0 014.39 14H5" stroke="#fff" stroke-width="2" stroke-linecap="round"/></svg>