<svg width="24" height="24" fill="none" xmlns="http://www.w3.org/2000/svg"><path d="M22.785 12c0-6.065-4.935-11-11-11-6.066 0-11 4.935-11 11 0 3.204 1.377 6.091 3.57 8.103l-.01.01.356.3c.024.02.049.036.072.055.19.157.386.306.586.45a11.202 11.202 0 00.852.558l.148.086c.245.14.495.271.752.392l.056.026a10.901 10.901 0 003.613.972l.109.008c.295.024.593.04.896.04.3 0 .595-.016.889-.04.037-.002.074-.004.111-.008.294-.026.585-.065.871-.114l.075-.014a10.9 10.9 0 002.623-.822c.03-.014.061-.027.091-.042a11.056 11.056 0 001.533-.875c.074-.05.146-.104.22-.157.175-.126.348-.256.515-.393.037-.03.077-.056.114-.087l.366-.305-.011-.01A10.972 10.972 0 0022.785 12zm-21.2 0c0-5.624 4.575-10.2 10.2-10.2 5.624 0 10.2 4.576 10.2 10.2 0 3.03-1.33 5.756-3.436 7.625a2.998 2.998 0 00-.357-.215l-3.387-1.693a.887.887 0 01-.493-.797v-1.183c.079-.097.162-.206.247-.327.439-.619.79-1.308 1.046-2.049.507-.24.834-.745.834-1.315v-1.418c0-.347-.127-.684-.354-.948V7.813c.02-.207.094-1.379-.754-2.345-.737-.842-1.93-1.268-3.546-1.268-1.617 0-2.81.426-3.547 1.267-.848.967-.774 2.138-.753 2.346V9.68c-.228.264-.355.6-.355.947v1.418c0 .44.197.851.536 1.129.324 1.269.99 2.23 1.237 2.555v1.158a.892.892 0 01-.465.783l-3.163 1.725c-.1.055-.2.119-.3.19A10.176 10.176 0 011.585 12zm16.183 8.253c-.14.101-.282.2-.427.294-.066.043-.132.086-.2.128-.188.117-.38.228-.576.332l-.13.067c-.451.23-.917.43-1.396.59l-.05.018c-.252.083-.506.157-.762.22h-.003c-.259.065-.521.118-.785.162a10.232 10.232 0 01-.772.096l-.133.01c-.249.018-.498.03-.75.03-.253 0-.506-.012-.757-.031l-.13-.01a10.345 10.345 0 01-.757-.093l-.033-.006a10.161 10.161 0 01-1.556-.389l-.048-.016c-.251-.085-.5-.18-.744-.285l-.006-.002c-.23-.1-.458-.21-.682-.327l-.087-.045a10.28 10.28 0 01-.776-.462c-.181-.119-.36-.242-.535-.373l-.053-.042.038-.021 3.163-1.726c.544-.296.882-.866.882-1.485v-1.441l-.092-.111c-.01-.01-.874-1.062-1.2-2.487l-.037-.158-.137-.088a.663.663 0 01-.307-.557v-1.418c0-.186.079-.36.223-.49l.132-.119V7.79l-.004-.052c-.001-.01-.12-.972.558-1.744.579-.66 1.57-.994 2.946-.994 1.37 0 2.358.332 2.938.986.677.765.566 1.745.565 1.753l-.003 2.28.132.12c.143.129.223.303.223.489v1.418a.668.668 0 01-.473.63l-.199.06-.064.199a7.4 7.4 0 01-.998 2.013c-.105.148-.207.279-.295.38l-.099.112v1.48c0 .645.359 1.225.935 1.513l3.387 1.693c.022.01.043.022.064.033-.043.033-.087.063-.13.094z" fill="#2AB0CD" stroke="#2AB0CD" stroke-width=".5"/></svg>