<svg width="19" height="18" fill="none" xmlns="http://www.w3.org/2000/svg"><path d="M13.16 0H6.41A5.626 5.626 0 00.785 5.625v6.75A5.626 5.626 0 006.41 18h6.75a5.626 5.626 0 005.625-5.625v-6.75A5.626 5.626 0 0013.16 0zm3.937 12.375a3.942 3.942 0 01-3.937 3.938H6.41a3.942 3.942 0 01-3.938-3.938v-6.75A3.942 3.942 0 016.41 1.687h6.75a3.942 3.942 0 013.937 3.938v6.75z" fill="url(#paint0_linear)"/><path d="M9.785 4.5a4.5 4.5 0 100 9 4.5 4.5 0 000-9zm0 7.313A2.816 2.816 0 016.972 9a2.816 2.816 0 012.813-2.813A2.816 2.816 0 0112.597 9a2.816 2.816 0 01-2.812 2.813z" fill="url(#paint1_linear)"/><path d="M14.622 4.762a.6.6 0 100-1.2.6.6 0 000 1.2z" fill="url(#paint2_linear)"/><defs><linearGradient id="paint0_linear" x1="18.785" y1="0" x2=".785" y2="18" gradientUnits="userSpaceOnUse"><stop stop-color="#3565E5"/><stop offset=".521" stop-color="#E0475B"/><stop offset="1" stop-color="#F4D76F"/></linearGradient><linearGradient id="paint1_linear" x1="18.785" y1="0" x2=".785" y2="18" gradientUnits="userSpaceOnUse"><stop stop-color="#3565E5"/><stop offset=".521" stop-color="#E0475B"/><stop offset="1" stop-color="#F4D76F"/></linearGradient><linearGradient id="paint2_linear" x1="18.785" y1="0" x2=".785" y2="18" gradientUnits="userSpaceOnUse"><stop stop-color="#3565E5"/><stop offset=".521" stop-color="#E0475B"/><stop offset="1" stop-color="#F4D76F"/></linearGradient></defs></svg>