<svg width="20" height="15" fill="none" xmlns="http://www.w3.org/2000/svg"><path d="M16.587 1H2.986C1.772 1 .785 1.937.785 3.089v8.822c0 1.152.987 2.089 2.2 2.089h13.599c1.214 0 2.2-.937 2.2-2.089V3.092C18.789 1.94 17.802 1 16.588 1zm1.196 10.911c0 .626-.537 1.135-1.196 1.135H2.986c-.66 0-1.196-.51-1.196-1.135V3.092c0-.625.537-1.134 1.196-1.134h13.598c.659 0 1.195.509 1.195 1.134v8.82h.004z" fill="#2AB0CD"/><path d="M12.137 7.39l4.402-3.746a.462.462 0 00.037-.675.525.525 0 00-.711-.036L9.794 8.104 8.61 7.101c-.004-.004-.008-.007-.008-.011a.735.735 0 00-.082-.067L3.7 2.93a.521.521 0 00-.71.039.46.46 0 00.04.675l4.455 3.778-4.436 3.941a.462.462 0 00-.022.675.528.528 0 00.711.025l4.503-3.997L9.463 9.1a.518.518 0 00.67-.003l1.255-1.068 4.477 4.037c.097.088.223.13.346.13.134 0 .265-.05.365-.148a.462.462 0 00-.018-.675L12.137 7.39z" fill="#2AB0CD"/><path d="M16.587 1H2.986C1.772 1 .785 1.937.785 3.089v8.822c0 1.152.987 2.089 2.2 2.089h13.599c1.214 0 2.2-.937 2.2-2.089V3.092C18.789 1.94 17.802 1 16.588 1zm1.196 10.911c0 .626-.537 1.135-1.196 1.135H2.986c-.66 0-1.196-.51-1.196-1.135V3.092c0-.625.537-1.134 1.196-1.134h13.598c.659 0 1.195.509 1.195 1.134v8.82h.004z" stroke="#2AB0CD" stroke-width=".5"/><path d="M12.137 7.39l4.402-3.746a.462.462 0 00.037-.675.525.525 0 00-.711-.036L9.794 8.104 8.61 7.101c-.004-.004-.008-.007-.008-.011a.735.735 0 00-.082-.067L3.7 2.93a.521.521 0 00-.71.039.46.46 0 00.04.675l4.455 3.778-4.436 3.941a.462.462 0 00-.022.675.528.528 0 00.711.025l4.503-3.997L9.463 9.1a.518.518 0 00.67-.003l1.255-1.068 4.477 4.037c.097.088.223.13.346.13.134 0 .265-.05.365-.148a.462.462 0 00-.018-.675L12.137 7.39z" stroke="#2AB0CD" stroke-width=".5"/></svg>