<svg width="12" height="18" fill="none" xmlns="http://www.w3.org/2000/svg"><path d="M5.785 1c-.569 0-1.114.23-1.516.64-.401.41-.627.966-.627 1.546v5.828c0 .58.226 1.136.627 1.546.402.41.947.64 1.516.64.568 0 1.113-.23 1.515-.64.402-.41.628-.966.628-1.546V3.186c0-.58-.226-1.136-.628-1.546A2.122 2.122 0 005.785 1v0z" stroke="#2AB0CD" stroke-width="1.5" stroke-linecap="round" stroke-linejoin="round"/><path d="M10.785 7.522v1.47a5.228 5.228 0 01-1.465 3.642 4.928 4.928 0 01-3.535 1.508 4.928 4.928 0 01-3.536-1.508A5.228 5.228 0 01.785 8.993V7.522M5.785 14.571v2.01M2.927 17h5.715" stroke="#2AB0CD" stroke-width="1.5" stroke-linecap="round" stroke-linejoin="round"/></svg>