<svg width="13" height="20" fill="none" xmlns="http://www.w3.org/2000/svg"><path d="M11.785 17.599V2.397A1.41 1.41 0 0010.367 1H2.203A1.41 1.41 0 00.785 2.397v15.206A1.41 1.41 0 002.203 19h8.164c.78-.004 1.418-.629 1.418-1.401zM1.699 4.239h9.168v10.23H1.699V4.24zm.504-2.338h8.164a.5.5 0 01.503.496v.942H1.7v-.942a.5.5 0 01.504-.496zm-.504 15.698v-2.232h9.168v2.232a.5.5 0 01-.504.496h-8.16a.5.5 0 01-.504-.496z" fill="#2AB0CD"/><path d="M7.21 16.32H5.356a.455.455 0 00-.46.452c0 .25.206.452.46.452H7.21a.455.455 0 00.459-.452.455.455 0 00-.459-.453z" fill="#2AB0CD"/><path d="M11.785 17.599V2.397A1.41 1.41 0 0010.367 1H2.203A1.41 1.41 0 00.785 2.397v15.206A1.41 1.41 0 002.203 19h8.164c.78-.004 1.418-.629 1.418-1.401zM1.699 4.239h9.168v10.23H1.699V4.24zm.504-2.338h8.164a.5.5 0 01.503.496v.942H1.7v-.942a.5.5 0 01.504-.496zm-.504 15.698v-2.232h9.168v2.232a.5.5 0 01-.504.496h-8.16a.5.5 0 01-.504-.496z" stroke="#2AB0CD" stroke-width=".5"/><path d="M7.21 16.32H5.356a.455.455 0 00-.46.452c0 .25.206.452.46.452H7.21a.455.455 0 00.459-.452.455.455 0 00-.459-.453z" stroke="#2AB0CD" stroke-width=".5"/></svg>