<svg width="14" height="14" fill="none" xmlns="http://www.w3.org/2000/svg"><path d="M11 8.333c-.802 0-1.52.357-2.009.917L5.607 7.558a2.68 2.68 0 000-1.116L8.991 4.75a2.667 2.667 0 10-.598-1.192L5.009 5.25A2.658 2.658 0 003 4.333a2.667 2.667 0 000 5.334c.803 0 1.52-.356 2.01-.917l3.383 1.692A2.665 2.665 0 0011 13.667a2.667 2.667 0 000-5.334zm0-6.666a1.333 1.333 0 110 2.666 1.333 1.333 0 010-2.666zM3 8.333a1.333 1.333 0 110-2.666 1.333 1.333 0 010 2.666zm8 4a1.333 1.333 0 110-2.666 1.333 1.333 0 010 2.666z" fill="#2AB0CD"/></svg>