<svg width="56" height="56" fill="none" xmlns="http://www.w3.org/2000/svg"><g clip-path="url(#clip0)" fill="#7EBD3E"><path d="M52.267 11.2a3.737 3.737 0 00-3.734 3.733 3.737 3.737 0 003.734 3.734A3.737 3.737 0 0056 14.933a3.737 3.737 0 00-3.733-3.733zm0 5.6a1.869 1.869 0 01-1.867-1.867c0-1.029.837-1.866 1.867-1.866s1.866.837 1.866 1.866c0 1.03-.837 1.867-1.866 1.867zM3.733 42A3.737 3.737 0 000 45.733a3.737 3.737 0 003.733 3.734 3.737 3.737 0 003.734-3.734A3.737 3.737 0 003.733 42zm0 5.6a1.869 1.869 0 01-1.866-1.867c0-1.03.837-1.866 1.866-1.866 1.03 0 1.867.837 1.867 1.866 0 1.03-.837 1.867-1.867 1.867z"/><path d="M50.457 12.38l-8.052-3.888a.932.932 0 10-.811 1.681l8.052 3.888a.932.932 0 001.246-.435.934.934 0 00-.435-1.246zM42 48.533a3.737 3.737 0 00-3.733 3.734A3.737 3.737 0 0042 56a3.737 3.737 0 003.733-3.733A3.737 3.737 0 0042 48.533zm0 5.6a1.869 1.869 0 01-1.867-1.866c0-1.03.838-1.867 1.867-1.867 1.03 0 1.867.837 1.867 1.867S43.03 54.133 42 54.133z"/><path d="M40.19 49.713l-8.052-3.887a.933.933 0 00-.811 1.681l8.052 3.887a.932.932 0 001.246-.435.934.934 0 00-.435-1.246zM28 25.2a3.737 3.737 0 00-3.733 3.733A3.737 3.737 0 0028 32.667a3.737 3.737 0 003.733-3.734A3.737 3.737 0 0028 25.2zm0 5.6a1.869 1.869 0 01-1.867-1.867c0-1.03.838-1.866 1.867-1.866 1.03 0 1.867.837 1.867 1.866 0 1.03-.838 1.867-1.867 1.867z"/><path d="M26.359 26.484l-6.185-4.82a.934.934 0 00-1.148 1.473l6.185 4.82a.932.932 0 001.31-.162.934.934 0 00-.162-1.31zM44.8 24.267c-5.66 0-10.267 4.606-10.267 10.266 0 5.661 4.606 10.267 10.267 10.267 5.66 0 10.267-4.606 10.267-10.267 0-5.66-4.606-10.266-10.267-10.266zm0 18.666c-4.632 0-8.4-3.767-8.4-8.4 0-4.632 3.768-8.4 8.4-8.4 4.632 0 8.4 3.768 8.4 8.4 0 4.633-3.768 8.4-8.4 8.4z"/><path d="M44.8 28a3.737 3.737 0 00-3.733 3.733 3.737 3.737 0 003.733 3.734 3.737 3.737 0 003.733-3.734A3.737 3.737 0 0044.8 28zm0 5.6a1.869 1.869 0 01-1.867-1.867c0-1.03.837-1.866 1.867-1.866s1.867.837 1.867 1.866c0 1.03-.838 1.867-1.867 1.867zM47.508 37.333h-5.416c-1.594 0-2.892 1.263-2.892 2.814v2.46c0 .334.177.642.466.809A10.266 10.266 0 0044.8 44.8c1.795 0 3.57-.479 5.134-1.384a.933.933 0 00.466-.807v-2.46c0-1.553-1.297-2.816-2.892-2.816zm1.025 4.718a8.463 8.463 0 01-7.466 0v-1.903c0-.522.46-.948 1.025-.948h5.416c.565 0 1.025.426 1.025.948v1.903zM22.4 35.467c-5.66 0-10.267 4.606-10.267 10.266C12.133 51.394 16.74 56 22.4 56c5.66 0 10.267-4.606 10.267-10.267 0-5.66-4.606-10.266-10.267-10.266zm0 18.666c-4.632 0-8.4-3.768-8.4-8.4 0-4.632 3.768-8.4 8.4-8.4 4.632 0 8.4 3.768 8.4 8.4 0 4.632-3.768 8.4-8.4 8.4z"/><path d="M22.4 39.2a3.737 3.737 0 00-3.733 3.733 3.737 3.737 0 003.733 3.734 3.737 3.737 0 003.733-3.734A3.737 3.737 0 0022.4 39.2zm0 5.6a1.869 1.869 0 01-1.867-1.867c0-1.03.837-1.866 1.867-1.866s1.867.837 1.867 1.866c0 1.03-.837 1.867-1.867 1.867zM25.108 48.533h-5.416c-1.595 0-2.892 1.263-2.892 2.814v2.46c0 .334.177.642.466.809A10.267 10.267 0 0022.4 56c1.795 0 3.57-.479 5.134-1.384a.932.932 0 00.466-.807v-2.46c0-1.553-1.297-2.816-2.892-2.816zm1.025 4.718a8.463 8.463 0 01-7.466 0v-1.903c0-.522.46-.948 1.025-.948h5.415c.566 0 1.026.426 1.026.948v1.903zM10.267 12.133C4.606 12.133 0 16.74 0 22.4c0 5.66 4.606 10.267 10.267 10.267 5.66 0 10.266-4.606 10.266-10.267 0-5.66-4.606-10.267-10.266-10.267zm0 18.667c-4.632 0-8.4-3.768-8.4-8.4 0-4.632 3.768-8.4 8.4-8.4 4.632 0 8.4 3.768 8.4 8.4 0 4.632-3.768 8.4-8.4 8.4z"/><path d="M10.267 15.867A3.737 3.737 0 006.534 19.6a3.737 3.737 0 003.733 3.733A3.737 3.737 0 0014 19.6a3.737 3.737 0 00-3.733-3.733zm0 5.6A1.869 1.869 0 018.4 19.6c0-1.03.837-1.867 1.867-1.867s1.867.838 1.867 1.867c0 1.03-.838 1.867-1.867 1.867zM12.974 25.2H7.56c-1.595 0-2.892 1.263-2.892 2.814v2.46c0 .334.177.642.465.809a10.266 10.266 0 005.135 1.384c1.795 0 3.57-.48 5.134-1.384a.932.932 0 00.466-.808v-2.46c0-1.552-1.298-2.815-2.893-2.815zM14 29.918a8.463 8.463 0 01-7.467 0v-1.903c0-.523.46-.948 1.026-.948h5.415c.566 0 1.026.425 1.026.948v1.903zM32.667 0C27.006 0 22.4 4.606 22.4 10.267c0 5.66 4.606 10.266 10.267 10.266 5.66 0 10.266-4.606 10.266-10.266C42.933 4.606 38.327 0 32.667 0zm0 18.667c-4.633 0-8.4-3.768-8.4-8.4 0-4.632 3.768-8.4 8.4-8.4 4.632 0 8.4 3.768 8.4 8.4 0 4.632-3.768 8.4-8.4 8.4z"/><path d="M32.667 3.733a3.737 3.737 0 00-3.734 3.734 3.737 3.737 0 003.734 3.733A3.737 3.737 0 0036.4 7.467a3.737 3.737 0 00-3.733-3.734zm0 5.6A1.869 1.869 0 0130.8 7.467c0-1.03.837-1.867 1.867-1.867s1.866.837 1.866 1.867-.837 1.866-1.866 1.866zM35.374 13.067H29.96c-1.595 0-2.892 1.262-2.892 2.814v2.46c0 .333.177.641.465.808a10.265 10.265 0 005.135 1.384c1.794 0 3.57-.479 5.134-1.384a.932.932 0 00.466-.807v-2.46c0-1.553-1.298-2.815-2.893-2.815zm1.026 4.718a8.463 8.463 0 01-7.467 0v-1.903c0-.523.46-.949 1.026-.949h5.415c.566 0 1.026.426 1.026.949v1.903zM24.044 9.659a.935.935 0 00-1.316-.102l-6.468 5.535a.933.933 0 101.213 1.418l6.468-5.535a.933.933 0 00.103-1.316z"/><path d="M44.613 24.641l-5.6-7.467a.933.933 0 00-1.493 1.12l5.6 7.466a.933.933 0 001.493-1.119zM36.953 37.62a.933.933 0 00-1.306-.187l-5.214 3.91a.932.932 0 101.12 1.492l5.214-3.91a.932.932 0 00.186-1.305zM13.067 44.8H6.533a.933.933 0 100 1.867h6.534a.933.933 0 100-1.867zM10.267 0a3.737 3.737 0 00-3.734 3.733 3.737 3.737 0 003.734 3.734A3.737 3.737 0 0014 3.733 3.737 3.737 0 0010.267 0zm0 5.6A1.869 1.869 0 018.4 3.733c0-1.03.837-1.866 1.867-1.866s1.867.837 1.867 1.866c0 1.03-.838 1.867-1.867 1.867z"/><path d="M10.267 5.6a.933.933 0 00-.934.933v6.534a.933.933 0 101.867 0V6.533a.933.933 0 00-.933-.933z"/></g><defs><clipPath id="clip0"><path fill="#fff" d="M0 0h56v56H0z"/></clipPath></defs></svg>