<svg width="56" height="56" fill="none" xmlns="http://www.w3.org/2000/svg"><path d="M45.355 11.754c3.778 3.778 5.907 8.787 5.977 14.217v.104l-20.436.132V5.777H31c5.355 0 10.506 2.128 14.355 5.977z" stroke="#7EBD3E" stroke-width="1.8"/><path d="M47.857 30.34v-1.003l-20.227.143V9.253h-1.004c-5.667-.072-11.046 2.152-15.063 6.168-8.32 8.32-8.32 21.806 0 30.126s21.805 8.32 30.054-.072c4.016-4.016 6.24-9.396 6.24-15.134zm-34.86 13.772c-7.531-7.531-7.531-19.725 0-27.256 3.372-3.371 7.819-5.38 12.624-5.595v20.227l20.228-.143c-.216 4.806-2.152 9.325-5.595 12.768-7.532 7.53-19.725 7.53-27.257 0z" fill="#7EBD3E"/></svg>