<svg width="18" height="18" fill="none" xmlns="http://www.w3.org/2000/svg"><path d="M13.437 10.911c-.329-.34-.724-.523-1.144-.523-.416 0-.815.179-1.156.52l-1.069 1.064c-.088-.047-.176-.091-.26-.135-.122-.061-.237-.118-.335-.18-1.001-.634-1.91-1.462-2.783-2.532-.423-.534-.707-.983-.913-1.439.277-.253.534-.516.784-.77.095-.094.19-.192.284-.286.71-.71.71-1.628 0-2.337l-.923-.922c-.105-.105-.213-.213-.314-.321-.203-.21-.416-.426-.636-.628-.328-.324-.72-.497-1.133-.497-.413 0-.812.173-1.15.497l-.007.007-1.15 1.158c-.432.432-.68.959-.733 1.57-.082.986.21 1.905.432 2.506.548 1.476 1.367 2.843 2.588 4.309a15.91 15.91 0 005.299 4.143c.778.368 1.816.804 2.976.878.07.004.145.007.213.007.781 0 1.437-.28 1.951-.837.004-.007.01-.01.014-.017.176-.213.378-.406.592-.612.145-.138.294-.283.44-.435.334-.348.51-.753.51-1.169 0-.418-.18-.82-.52-1.158l-1.857-1.86zm1.21 3.556c-.003.004-.003 0 0 0-.132.142-.267.27-.412.412-.22.21-.443.43-.653.676-.342.364-.744.537-1.272.537-.05 0-.104 0-.155-.004-1.005-.064-1.938-.456-2.638-.79a15.018 15.018 0 01-4.992-3.904c-1.153-1.388-1.924-2.67-2.435-4.049-.314-.84-.429-1.496-.378-2.114a1.55 1.55 0 01.466-1.002l1.154-1.152c.165-.155.341-.24.514-.24.213 0 .385.129.493.237l.01.01c.207.192.403.391.61.604l.32.328.924.922c.358.358.358.689 0 1.047-.098.097-.193.195-.291.29-.284.29-.555.56-.849.824-.007.007-.013.01-.017.017-.29.29-.237.574-.176.766l.01.03c.24.582.579 1.129 1.093 1.78l.003.004c.934 1.148 1.918 2.043 3.003 2.728.139.088.28.159.416.226.122.061.237.119.335.18.014.006.027.016.04.023a.734.734 0 00.335.085c.281 0 .457-.176.514-.233l1.157-1.155c.115-.115.298-.254.51-.254.21 0 .383.132.488.247l.006.007 1.864 1.86c.348.345.348.7.003 1.057zM9.432 4.806a4.29 4.29 0 012.334 1.209 4.302 4.302 0 011.21 2.33c.038.223.23.378.45.378a.456.456 0 00.453-.534 5.206 5.206 0 00-1.464-2.82 5.219 5.219 0 00-2.824-1.461.459.459 0 00-.527.371.451.451 0 00.368.527zM16.778 8.058a8.565 8.565 0 00-2.411-4.643 8.586 8.586 0 00-4.65-2.408.455.455 0 10-.15.898 7.687 7.687 0 014.157 2.151 7.646 7.646 0 012.154 4.15c.037.223.23.379.45.379.027 0 .05-.004.078-.007a.447.447 0 00.372-.52z" fill="#2AB0CD"/><path d="M14.647 14.467c-.003 0-.003.004 0 0zm0 0c-.132.142-.267.27-.412.412-.22.21-.443.43-.653.676-.342.364-.744.537-1.272.537-.05 0-.104 0-.155-.004-1.005-.064-1.938-.456-2.638-.79a15.018 15.018 0 01-4.992-3.904c-1.153-1.388-1.924-2.67-2.435-4.049-.314-.84-.429-1.496-.378-2.114a1.55 1.55 0 01.466-1.002l1.154-1.152c.165-.155.341-.24.514-.24.213 0 .385.129.493.237l.01.01c.207.192.403.391.61.604l.32.328.924.922c.358.358.358.689 0 1.047-.098.097-.193.195-.291.29-.284.29-.555.56-.849.824-.007.007-.013.01-.017.017-.29.29-.237.574-.176.766l.01.03c.24.582.579 1.129 1.093 1.78l.003.004c.934 1.148 1.918 2.043 3.003 2.728.139.088.28.159.416.226.122.061.237.119.335.18.014.006.027.016.04.023a.734.734 0 00.335.085c.281 0 .457-.176.514-.233l1.157-1.155c.115-.115.298-.254.51-.254.21 0 .383.132.488.247l.006.007 1.864 1.86c.348.345.348.7.003 1.057zm-1.21-3.556c-.329-.34-.724-.523-1.144-.523-.416 0-.815.179-1.156.52l-1.069 1.064c-.088-.047-.176-.091-.26-.135-.122-.061-.237-.118-.335-.18-1.001-.634-1.91-1.462-2.783-2.532-.423-.534-.707-.983-.913-1.439.277-.253.534-.516.784-.77.095-.094.19-.192.284-.286.71-.71.71-1.628 0-2.337l-.923-.922c-.105-.105-.213-.213-.314-.321-.203-.21-.416-.426-.636-.628-.328-.324-.72-.497-1.133-.497-.413 0-.812.173-1.15.497l-.007.007-1.15 1.158c-.432.432-.68.959-.733 1.57-.082.986.21 1.905.432 2.506.548 1.476 1.367 2.843 2.588 4.309a15.91 15.91 0 005.299 4.143c.778.368 1.816.804 2.976.878.07.004.145.007.213.007.781 0 1.437-.28 1.951-.837.004-.007.01-.01.014-.017.176-.213.378-.406.592-.612.145-.138.294-.283.44-.435.334-.348.51-.753.51-1.169 0-.418-.18-.82-.52-1.158l-1.857-1.86zM9.431 4.806a4.29 4.29 0 012.334 1.209 4.302 4.302 0 011.21 2.33c.038.223.23.378.45.378a.456.456 0 00.453-.534 5.206 5.206 0 00-1.464-2.82 5.219 5.219 0 00-2.824-1.461.459.459 0 00-.527.371.451.451 0 00.368.527zm7.346 3.252a8.565 8.565 0 00-2.411-4.643 8.586 8.586 0 00-4.65-2.408.455.455 0 10-.15.898 7.687 7.687 0 014.157 2.151 7.646 7.646 0 012.154 4.15c.037.223.23.379.45.379.027 0 .05-.004.078-.007a.447.447 0 00.372-.52z" stroke="#2AB0CD" stroke-width=".5"/></svg>