<svg width="18" height="18" fill="none" xmlns="http://www.w3.org/2000/svg"><path d="M10.454 12.28s1.296-.741 1.635-.92c.338-.178.689-.223.901-.093.323.197 3.029 1.997 3.256 2.156.228.16.338.616.025 1.062-.312.447-1.752 2.214-2.362 2.195-.61-.02-3.15-.076-7.94-4.867-4.788-4.789-4.845-7.33-4.864-7.94-.02-.61 1.747-2.05 2.193-2.363.448-.312.904-.194 1.063.025.18.25 1.96 2.948 2.155 3.257.135.21.085.563-.094.902-.178.339-.92 1.635-.92 1.635s.524.891 2.292 2.66c1.769 1.768 2.66 2.292 2.66 2.292z" stroke="#2AB0CD" stroke-width="1.5" stroke-miterlimit="10"/></svg>