<svg width="26" height="26" fill="none" xmlns="http://www.w3.org/2000/svg"><path d="M24.35 22.772l1.403-1.062c.467-.353.227-1.192-.35-1.192H23.67c-.258 0-.487-.104-.567-.36l-.535-1.73a.587.587 0 00-1.134 0l-.535 1.73c-.08.256-.309.36-.567.36h-1.734c-.577 0-.817.839-.35 1.192l1.403 1.062a.636.636 0 01.216.694l-.564 1.719a.663.663 0 00-.03.222c.017.462.57.778.975.472l1.403-1.063a.579.579 0 01.7 0l1.403 1.063c.405.306.956-.01.976-.472a.652.652 0 00-.03-.222l-.565-1.719a.636.636 0 01.216-.694zM6.35 22.772l1.403-1.062c.467-.353.227-1.192-.35-1.192H5.67c-.258 0-.487-.104-.567-.36l-.536-1.73a.587.587 0 00-1.132 0l-.536 1.73c-.08.256-.309.36-.567.36H.597c-.577 0-.817.839-.35 1.192l1.403 1.062a.635.635 0 01.216.694l-.564 1.719a.662.662 0 00-.03.222c.017.462.57.778.975.472l1.403-1.063a.579.579 0 01.7 0l1.403 1.063c.405.306.956-.01.976-.472a.651.651 0 00-.03-.222l-.565-1.719a.635.635 0 01.216-.694zM15.35 18.772l1.403-1.062c.467-.353.227-1.192-.35-1.192H14.67c-.258 0-.487-.104-.567-.36l-.536-1.73a.587.587 0 00-1.133 0l-.535 1.73c-.08.256-.309.36-.567.36H9.597c-.577 0-.817.839-.35 1.192l1.403 1.062a.636.636 0 01.216.694l-.564 1.719a.663.663 0 00-.03.222c.017.462.57.778.975.472l1.403-1.063a.579.579 0 01.7 0l1.403 1.063c.405.306.956-.01.976-.472a.652.652 0 00-.03-.222l-.565-1.719a.636.636 0 01.216-.694z" fill="#FFB947"/><path d="M17.75 5.5a4.75 4.75 0 11-9.5 0 4.75 4.75 0 019.5 0z" stroke="#FFB947" stroke-width="1.5"/><path d="M21 14.199a10.477 10.477 0 00-8-3.699 10.477 10.477 0 00-8 3.699" stroke="#FFB947" stroke-width="1.5" stroke-linecap="round"/></svg>