<svg width="26" height="26" fill="none" xmlns="http://www.w3.org/2000/svg"><path d="M4.288 14.168h13.185v2.031H4.288v-2.031zm0 5.941h13.185v-2.03H4.288v2.03zM26 11.883v11.071c-.001 1.612-1.331 2.934-3.006 3.04V26H3.216C1.443 26 0 24.633 0 22.953V3.047C0 1.367 1.443 0 3.216 0h15.329c1.773 0 3.216 1.367 3.216 3.047v5.789h1.023c1.773 0 3.216 1.367 3.216 3.047zm-6.2 12.086a2.892 2.892 0 01-.183-1.016V3.047c0-.56-.48-1.016-1.072-1.016H3.215c-.59 0-1.071.456-1.071 1.016v19.906c0 .56.48 1.016 1.072 1.016H19.8zm4.056-12.086c0-.56-.48-1.016-1.072-1.016h-1.023v12.086c0 .552.466 1.002 1.045 1.015.581-.013 1.05-.463 1.05-1.014V11.883zm-10.992.406h4.61v-2.031h-4.61v2.031zm0-4.062h4.61V6.195h-4.61v2.032zm-2.144 4.062H4.288V6.195h6.432v6.094zM8.576 8.227H6.432v2.03h2.144v-2.03z" fill="#FFB947"/></svg>