<svg width="21" height="20" fill="none" xmlns="http://www.w3.org/2000/svg"><path fill-rule="evenodd" clip-rule="evenodd" d="M20.43 10.105c0 .693-.076 1.366-.22 2.018.368.73.575 1.553.575 2.422 0 3.013-2.477 5.455-5.533 5.455-.946 0-1.836-.39-2.615-.803a9.735 9.735 0 01-1.747.158c-5.268 0-9.538-4.055-9.538-9.25 0-.648.066-1.28.193-1.89a5.38 5.38 0 01-.76-2.76C.785 2.442 3.26 0 6.317 0 7.4 0 8.407.307 9.26.837A9.739 9.739 0 0110.89.7c5.27 0 9.54 4.211 9.54 9.405zm-6.805 5.068c.71-.295 1.249-.707 1.617-1.23a3.012 3.012 0 00.551-1.77c0-.549-.106-1.012-.318-1.39a2.675 2.675 0 00-.887-.939 5.777 5.777 0 00-1.378-.63 19.344 19.344 0 00-1.808-.474 31.091 31.091 0 01-1.145-.28 3.82 3.82 0 01-.684-.269 1.562 1.562 0 01-.532-.407.87.87 0 01-.194-.563c0-.35.19-.651.569-.9.378-.25.877-.374 1.494-.374.666 0 1.149.114 1.45.344.302.23.558.55.774.96.166.287.32.493.463.619.142.125.35.19.625.19.3 0 .552-.106.753-.316a.998.998 0 00.301-.709c0-.285-.08-.581-.242-.881-.16-.302-.416-.59-.766-.864-.348-.274-.786-.494-1.316-.66-.53-.165-1.157-.248-1.882-.248-.907 0-1.697.125-2.368.375-.673.25-1.184.606-1.539 1.071a2.551 2.551 0 00-.532 1.594c0 .627.168 1.152.504 1.575.335.422.79.755 1.362 1 .571.244 1.282.46 2.13.641a16.5 16.5 0 011.52.379c.378.118.687.29.926.515.24.223.36.517.36.877 0 .454-.223.835-.666 1.138-.444.304-1.02.456-1.729.456-.515 0-.931-.076-1.249-.226a1.94 1.94 0 01-.736-.575 4.225 4.225 0 01-.488-.868c-.123-.291-.272-.51-.447-.659a.95.95 0 00-.641-.223c-.31 0-.568.095-.769.287a.907.907 0 00-.302.684c0 .46.168.934.503 1.42.337.487.774.877 1.31 1.168.758.405 1.72.608 2.885.608.972 0 1.812-.148 2.521-.446z" fill="#0193E0"/></svg>