<svg width="23" height="14" fill="none" xmlns="http://www.w3.org/2000/svg"><path d="M6.588 4.919c-1.685 0-3.056 1.346-3.056 3s1.37 3 3.056 3c1.685 0 3.055-1.346 3.055-3s-1.37-3-3.055-3zm0 3.66a.668.668 0 01-.674-.66c0-.365.302-.661.674-.661.371 0 .673.296.673.66a.668.668 0 01-.673.662zM16.909 4.919c-1.685 0-3.056 1.346-3.056 3s1.37 3 3.056 3c1.685 0 3.056-1.346 3.056-3s-1.371-3-3.056-3zm.03 3.66a.668.668 0 01-.673-.66c0-.365.302-.661.673-.661.372 0 .674.296.674.66a.668.668 0 01-.674.662z" fill="#078171"/><path d="M22.785 2.222h-4.92C16.401.826 14.14 0 11.748 0 9.454 0 7.14.846 5.634 2.222H.825l1.31 2.047a5.61 5.61 0 00-1.35 3.65c0 3.14 2.603 5.696 5.803 5.696a5.838 5.838 0 004.206-1.776L11.748 14l.954-2.161a5.839 5.839 0 004.207 1.776c3.2 0 5.803-2.555 5.803-5.696a5.606 5.606 0 00-1.287-3.573l1.36-2.124zM6.588 12.354c-2.492 0-4.518-1.99-4.518-4.435 0-2.446 2.026-4.436 4.518-4.436 2.491 0 4.518 1.99 4.518 4.436 0 2.445-2.027 4.435-4.518 4.435zM21.427 7.92c0 2.445-2.027 4.435-4.518 4.435-2.491 0-4.518-1.99-4.518-4.435 0-2.446 2.027-4.436 4.518-4.436 2.491 0 4.518 1.99 4.518 4.436z" fill="#078171"/></svg>