<svg width="20" height="20" fill="none" xmlns="http://www.w3.org/2000/svg"><path d="M18.498 1.293l-.003-.003-.003-.003a.97.97 0 00-1.05-.218L1.41 7.338A.97.97 0 00.792 8.37a.97.97 0 00.845.857l7.835 1.057a.033.033 0 01.029.029l1.056 7.835a.97.97 0 00.98.852.97.97 0 00.91-.625l6.268-16.032a.97.97 0 00-.217-1.05zM1.764 8.286c-.018-.002-.026-.003-.029-.029-.003-.025.005-.028.021-.034l15-5.865L9.74 9.373c-.046-.013-7.976-1.087-7.976-1.087zm9.798 9.743c-.006.016-.009.024-.035.02-.025-.002-.026-.01-.028-.028 0 0-1.074-7.93-1.088-7.976l7.016-7.016-5.865 15z" fill="#2AB0CD" stroke="#2AB0CD" stroke-width=".5"/></svg>