<svg width="21" height="22" fill="none" xmlns="http://www.w3.org/2000/svg"><path d="M20.58 12.736c.651-5.52-.312-9.005-2.05-10.58v-.002C15.725-.537 6.25-.936 2.894 2.275 1.387 3.845.856 6.151.798 9.005.739 11.86.67 17.207 5.617 18.658h.004l-.004 2.215s-.034.898.535 1.078c.651.213.946-.204 2.97-2.64 3.386.296 5.986-.382 6.281-.48.684-.232 4.552-.747 5.177-6.095zM9.456 17.752s-2.143 2.692-2.81 3.39c-.218.228-.457.207-.453-.244 0-.296.016-3.678.016-3.678-4.193-1.21-3.946-5.764-3.9-8.146.045-2.383.478-4.335 1.754-5.65C7.008.645 15.314 1.266 17.43 3.27c2.588 2.31 1.667 8.839 1.672 9.061-.532 4.464-3.666 4.747-4.243 4.94-.246.083-2.532.675-5.403.482z" fill="#7D3DAF"/><path d="M10.641 3.948c-.35 0-.35.55 0 .554 2.716.02 4.952 1.928 4.977 5.425 0 .37.536.365.531-.004-.029-3.77-2.471-5.954-5.508-5.975z" fill="#7D3DAF"/><path d="M14.213 9.347c-.008.365.527.382.532.013.044-2.078-1.227-3.79-3.617-3.97-.35-.026-.387.528-.038.554 2.073.159 3.165 1.584 3.123 3.403zM13.64 11.711c-.449-.262-.906-.099-1.095.159l-.396.515c-.2.262-.576.228-.576.228-2.74-.73-3.473-3.62-3.473-3.62s-.033-.39.218-.6l.494-.412c.247-.198.404-.674.152-1.142-.673-1.225-1.125-1.647-1.355-1.971-.241-.305-.605-.374-.983-.168h-.008c-.787.464-1.648 1.331-1.372 2.224.47.942 1.333 3.943 4.086 6.21 1.294 1.073 3.341 2.172 4.21 2.426l.008.012c.857.288 1.69-.613 2.134-1.43v-.005c.197-.395.132-.769-.156-1.014-.511-.501-1.282-1.055-1.888-1.412z" fill="#7D3DAF"/><path d="M11.502 7.434c.874.052 1.297.511 1.343 1.456.016.369.548.343.532-.026-.059-1.233-.697-1.92-1.846-1.984-.35-.02-.383.533-.029.554z" fill="#7D3DAF"/></svg>