<svg width="21" height="14" fill="none" xmlns="http://www.w3.org/2000/svg"><path d="M19.803 11.93a.402.402 0 01-.399.007l-4.359-2.386v1.432A2.017 2.017 0 0113.032 13H3.012A2.017 2.017 0 011 10.983V3.017A2.017 2.017 0 013.013 1h10.02a2.017 2.017 0 012.012 2.017v1.406l4.36-2.386a.402.402 0 01.595.354v9.192a.403.403 0 01-.197.347zM14.24 3.017a1.21 1.21 0 00-1.208-1.21H3.012a1.21 1.21 0 00-1.207 1.21v7.966c0 .668.541 1.21 1.208 1.21h10.02a1.21 1.21 0 001.207-1.21V3.017zm4.955.054l-4.15 2.271v3.29l4.15 2.27v-7.83z" fill="#fff" stroke="#fff" stroke-width=".5"/></svg>