<svg width="23" height="22" fill="none" xmlns="http://www.w3.org/2000/svg"><path fill-rule="evenodd" clip-rule="evenodd" d="M11.782 0h.005c6.065 0 10.998 4.935 10.998 11s-4.933 11-10.998 11c-2.237 0-4.312-.666-6.051-1.818l-4.228 1.352 1.37-4.087A10.919 10.919 0 01.786 11c0-6.066 4.932-11 10.997-11zm4.247 17.086c.84-.182 1.894-.803 2.159-1.553.265-.75.265-1.39.188-1.526-.062-.108-.209-.179-.428-.284l-.186-.091c-.323-.161-1.895-.938-2.192-1.041-.292-.11-.57-.072-.79.24l-.124.175c-.266.373-.522.733-.735.963-.194.206-.51.232-.775.122l-.1-.04c-.42-.17-1.351-.547-2.48-1.55-.951-.848-1.597-1.902-1.784-2.219-.184-.317-.026-.503.12-.675l.009-.01c.094-.116.186-.213.278-.311.066-.07.133-.141.2-.22l.03-.033c.144-.166.23-.265.327-.47.11-.214.031-.434-.047-.596-.054-.114-.387-.922-.673-1.616l-.316-.764c-.213-.51-.375-.53-.698-.543l-.03-.002a6.505 6.505 0 00-.339-.01c-.42 0-.86.123-1.125.394l-.029.03C6.15 5.8 5.394 6.57 5.394 8.102c0 1.536 1.09 3.023 1.291 3.298l.015.02.068.097c.412.596 2.418 3.5 5.409 4.74 2.527 1.048 3.277.95 3.852.828z" fill="#4CAF50"/></svg>