<svg width="28" height="28" fill="none" xmlns="http://www.w3.org/2000/svg"><path d="M21.56 17.106c-.534-.554-1.177-.85-1.858-.85-.676 0-1.325.29-1.88.845l-1.736 1.728c-.143-.077-.286-.148-.423-.22a6.964 6.964 0 01-.545-.29c-1.626-1.032-3.104-2.376-4.522-4.116-.687-.867-1.149-1.597-1.484-2.337.45-.412.868-.84 1.275-1.252.154-.153.308-.312.461-.466 1.155-1.152 1.155-2.645 0-3.797l-1.5-1.498c-.17-.17-.346-.346-.51-.522-.33-.34-.677-.691-1.034-1.02-.533-.527-1.17-.807-1.841-.807-.67 0-1.319.28-1.868.807l-.011.01-1.869 1.883a4.012 4.012 0 00-1.192 2.551c-.132 1.603.34 3.095.703 4.072.89 2.398 2.22 4.62 4.204 7.002 2.407 2.87 5.303 5.136 8.611 6.733 1.264.598 2.951 1.306 4.837 1.427.115.005.236.011.346.011 1.27 0 2.335-.456 3.17-1.36.006-.012.017-.017.023-.028.285-.346.615-.659.961-.994.237-.225.478-.46.715-.707.544-.566.83-1.224.83-1.9 0-.68-.292-1.333-.847-1.881l-3.017-3.024zm1.966 5.778c-.005.006-.005 0 0 0-.214.23-.434.44-.67.67-.357.34-.72.697-1.06 1.097-.556.593-1.21.873-2.067.873-.082 0-.17 0-.253-.006-1.632-.104-3.148-.74-4.286-1.284-3.11-1.503-5.842-3.638-8.111-6.343-1.874-2.256-3.127-4.34-3.957-6.58-.511-1.366-.698-2.43-.616-3.435a2.517 2.517 0 01.759-1.63l1.874-1.87c.269-.253.555-.39.835-.39.346 0 .627.208.802.384l.017.016c.335.313.654.637.989.982.17.176.346.352.522.533l1.5 1.498c.583.581.583 1.12 0 1.7-.159.16-.313.32-.472.473-.462.472-.902.91-1.38 1.339-.01.01-.022.016-.027.027-.473.472-.385.933-.286 1.246l.017.05c.39.943.94 1.832 1.775 2.891l.005.006c1.517 1.865 3.116 3.32 4.88 4.433.225.143.456.258.676.368.198.099.385.192.544.291.022.01.044.027.066.038.187.094.363.138.544.138.456 0 .742-.286.835-.38l1.88-1.876c.187-.186.483-.411.83-.411.34 0 .62.214.791.4l.011.011 3.028 3.024c.566.56.566 1.136.005 1.717zM15.053 7.185a6.972 6.972 0 013.791 1.964 6.992 6.992 0 011.968 3.787c.06.362.373.614.73.614.045 0 .083-.005.127-.01a.742.742 0 00.61-.857 8.46 8.46 0 00-2.38-4.582 8.48 8.48 0 00-4.588-2.376.746.746 0 00-.857.604c-.072.4.192.79.598.856zM26.989 12.47a13.917 13.917 0 00-3.919-7.546 13.951 13.951 0 00-7.556-3.913.739.739 0 10-.242 1.46 12.493 12.493 0 016.754 3.495 12.425 12.425 0 013.5 6.745c.061.362.375.614.732.614.044 0 .082-.005.126-.01a.727.727 0 00.605-.846z" fill="#fff"/><path d="M23.526 22.884c-.005 0-.005.006 0 0zm0 0c-.214.23-.434.44-.67.67-.357.34-.72.697-1.06 1.097-.556.593-1.21.873-2.067.873-.082 0-.17 0-.253-.006-1.632-.104-3.148-.74-4.286-1.284-3.11-1.503-5.842-3.638-8.111-6.343-1.874-2.256-3.127-4.34-3.957-6.58-.511-1.366-.698-2.43-.616-3.435a2.517 2.517 0 01.759-1.63l1.874-1.87c.269-.253.555-.39.835-.39.346 0 .627.208.802.384l.017.016c.335.313.654.637.989.982.17.176.346.352.522.533l1.5 1.498c.583.581.583 1.12 0 1.7-.159.16-.313.32-.472.473-.462.472-.902.91-1.38 1.339-.01.01-.022.016-.027.027-.473.472-.385.933-.286 1.246l.017.05c.39.943.94 1.832 1.775 2.891l.005.006c1.517 1.865 3.116 3.32 4.88 4.433.225.143.456.258.676.368.198.099.385.192.544.291.022.01.044.027.066.038.187.094.363.138.544.138.456 0 .742-.286.835-.38l1.88-1.876c.187-.186.483-.411.83-.411.34 0 .62.214.791.4l.011.011 3.028 3.024c.566.56.566 1.136.005 1.717zm-1.967-5.778c-.533-.554-1.176-.85-1.857-.85-.676 0-1.325.29-1.88.845l-1.736 1.728c-.143-.077-.286-.148-.423-.22a6.964 6.964 0 01-.545-.29c-1.626-1.032-3.104-2.376-4.522-4.116-.687-.867-1.149-1.597-1.484-2.337.45-.412.868-.84 1.275-1.252.154-.153.308-.312.461-.466 1.155-1.152 1.155-2.645 0-3.797l-1.5-1.498c-.17-.17-.346-.346-.51-.522-.33-.34-.677-.691-1.034-1.02-.533-.527-1.17-.807-1.841-.807-.67 0-1.319.28-1.868.807l-.011.01-1.869 1.883a4.012 4.012 0 00-1.192 2.551c-.132 1.603.34 3.095.703 4.072.89 2.398 2.22 4.62 4.204 7.002 2.407 2.87 5.303 5.136 8.611 6.733 1.264.598 2.951 1.306 4.837 1.427.115.005.236.011.346.011 1.27 0 2.335-.456 3.17-1.36.006-.012.017-.017.023-.028.285-.346.615-.659.961-.994.237-.225.478-.46.715-.707.544-.566.83-1.224.83-1.9 0-.68-.292-1.333-.847-1.881l-3.017-3.024zm-6.507-9.921a6.972 6.972 0 013.792 1.964 6.992 6.992 0 011.968 3.787c.06.362.373.614.73.614.045 0 .083-.005.127-.01a.742.742 0 00.61-.857 8.46 8.46 0 00-2.38-4.582 8.48 8.48 0 00-4.588-2.376.746.746 0 00-.857.604c-.072.4.192.79.598.856zm11.937 5.284a13.917 13.917 0 00-3.919-7.545 13.951 13.951 0 00-7.556-3.913.739.739 0 10-.242 1.46 12.493 12.493 0 016.754 3.495 12.425 12.425 0 013.5 6.745c.061.362.375.614.732.614.044 0 .082-.005.126-.01a.727.727 0 00.605-.846z" stroke="#fff" stroke-width=".5"/></svg>