<svg width="19" height="12" fill="none" xmlns="http://www.w3.org/2000/svg"><path d="M18.02 1.156C17.53.314 17.002.16 15.923.1 14.845.03 12.135 0 9.787 0c-2.352 0-5.064.03-6.14.1-1.077.06-1.608.213-2.1 1.056-.504.841-.762 2.29-.762 4.84V6.006c0 2.54.258 4 .761 4.832.493.842 1.023.995 2.1 1.066 1.077.061 3.789.097 6.14.097 2.349 0 5.059-.036 6.138-.096 1.079-.07 1.608-.224 2.097-1.066.507-.832.764-2.292.764-4.831V6v-.003c0-2.552-.257-4-.765-4.842zM7.535 9.273V2.727L13.16 6 7.535 9.273z" fill="red"/></svg>